<svg width="21" height="21" viewBox="0 0 21 21" fill="none" xmlns="http://www.w3.org/2000/svg">
<path d="M10.5 21C16.299 21 21 16.299 21 10.5C21 4.70101 16.299 0 10.5 0C4.70101 0 0 4.70101 0 10.5C0 16.299 4.70101 21 10.5 21Z" fill="white"/>
<path fill-rule="evenodd" clip-rule="evenodd" d="M4.81692 10.3189C7.87023 8.98857 9.90609 8.11145 10.9245 7.68755C13.8333 6.47834 14.4408 6.26834 14.8315 6.26052C14.9764 6.25771 15.1185 6.30041 15.2378 6.38262C15.3215 6.45482 15.3749 6.55599 15.3873 6.66587C15.4083 6.80253 15.4142 6.94109 15.4048 7.07904C15.2476 8.7395 14.5648 12.7529 14.2181 14.6078C14.0716 15.3892 13.7825 15.6558 13.5021 15.6822C12.8946 15.7379 12.4277 15.2798 11.8417 14.894C10.9196 14.2894 10.399 13.9172 9.50432 13.3234C8.46995 12.6396 9.14097 12.2675 9.72995 11.6561C9.88427 11.4959 12.5625 9.05792 12.6153 8.83718C12.6222 8.80458 12.6214 8.7708 12.6129 8.73857C12.6044 8.70634 12.5885 8.67655 12.5664 8.65159C12.5344 8.63156 12.4981 8.61927 12.4604 8.61571C12.4228 8.61215 12.3848 8.61741 12.3496 8.63108C12.2578 8.65127 10.7855 9.62443 7.93274 11.5506C7.51469 11.8377 7.13604 11.9777 6.79679 11.9706C6.42269 11.9618 5.70381 11.7586 5.16855 11.5799C4.51315 11.3669 3.99646 11.2546 4.03748 10.8962C4.06158 10.7086 4.32139 10.5162 4.81692 10.3189Z" fill="#111111"/>
</svg>
