<svg width="156" height="24" viewBox="0 0 156 24" fill="none" xmlns="http://www.w3.org/2000/svg">
<path d="M11.239 0.690984C11.5384 -0.230327 12.8418 -0.230328 13.1411 0.690982L15.3333 7.43769C15.4672 7.84972 15.8511 8.12868 16.2843 8.12868H23.3782C24.347 8.12868 24.7497 9.36829 23.966 9.93769L18.2269 14.1074C17.8764 14.362 17.7298 14.8134 17.8637 15.2254L20.0558 21.9721C20.3552 22.8934 19.3007 23.6596 18.517 23.0902L12.7779 18.9205C12.4274 18.6658 11.9528 18.6658 11.6023 18.9205L5.8632 23.0902C5.07949 23.6596 4.02501 22.8934 4.32436 21.9721L6.5165 15.2254C6.65037 14.8134 6.50371 14.362 6.15323 14.1074L0.414132 9.93769C-0.369582 9.36829 0.0331928 8.12868 1.00192 8.12868H8.09583C8.52905 8.12868 8.91301 7.84972 9.04688 7.43769L11.239 0.690984Z" fill="#111111"/>
<path d="M142.239 0.690984C142.538 -0.230327 143.842 -0.230328 144.141 0.690982L146.333 7.43769C146.467 7.84972 146.851 8.12868 147.284 8.12868H154.378C155.347 8.12868 155.75 9.36829 154.966 9.93769L149.227 14.1074C148.876 14.362 148.73 14.8134 148.864 15.2254L151.056 21.9721C151.355 22.8934 150.301 23.6596 149.517 23.0902L143.778 18.9205C143.427 18.6658 142.953 18.6658 142.602 18.9205L136.863 23.0902C136.079 23.6596 135.025 22.8934 135.324 21.9721L137.516 15.2254C137.65 14.8134 137.504 14.362 137.153 14.1074L131.414 9.93769C130.63 9.36829 131.033 8.12868 132.002 8.12868H139.096C139.529 8.12868 139.913 7.84972 140.047 7.43769L142.239 0.690984Z" fill="#111111"/>
<path d="M109.239 0.690984C109.538 -0.230327 110.842 -0.230328 111.141 0.690982L113.333 7.43769C113.467 7.84972 113.851 8.12868 114.284 8.12868H121.378C122.347 8.12868 122.75 9.36829 121.966 9.93769L116.227 14.1074C115.876 14.362 115.73 14.8134 115.864 15.2254L118.056 21.9721C118.355 22.8934 117.301 23.6596 116.517 23.0902L110.778 18.9205C110.427 18.6658 109.953 18.6658 109.602 18.9205L103.863 23.0902C103.079 23.6596 102.025 22.8934 102.324 21.9721L104.516 15.2254C104.65 14.8134 104.504 14.362 104.153 14.1074L98.4141 9.93769C97.6304 9.36829 98.0332 8.12868 99.0019 8.12868H106.096C106.529 8.12868 106.913 7.84972 107.047 7.43769L109.239 0.690984Z" fill="#111111"/>
<path d="M76.239 0.690984C76.5384 -0.230327 77.8418 -0.230328 78.1411 0.690982L80.3333 7.43769C80.4671 7.84972 80.8511 8.12868 81.2843 8.12868H88.3782C89.347 8.12868 89.7497 9.36829 88.966 9.93769L83.2269 14.1074C82.8764 14.362 82.7298 14.8134 82.8637 15.2254L85.0558 21.9721C85.3552 22.8934 84.3007 23.6596 83.517 23.0902L77.7779 18.9205C77.4274 18.6658 76.9528 18.6658 76.6023 18.9205L70.8632 23.0902C70.0795 23.6596 69.025 22.8934 69.3244 21.9721L71.5165 15.2254C71.6504 14.8134 71.5037 14.362 71.1532 14.1074L65.4141 9.93769C64.6304 9.36829 65.0332 8.12868 66.0019 8.12868H73.0958C73.5291 8.12868 73.913 7.84972 74.0469 7.43769L76.239 0.690984Z" fill="#111111"/>
<path d="M44.239 0.690984C44.5384 -0.230327 45.8418 -0.230328 46.1411 0.690982L48.3333 7.43769C48.4672 7.84972 48.8511 8.12868 49.2843 8.12868H56.3782C57.347 8.12868 57.7497 9.36829 56.966 9.93769L51.2269 14.1074C50.8764 14.362 50.7298 14.8134 50.8637 15.2254L53.0558 21.9721C53.3552 22.8934 52.3007 23.6596 51.517 23.0902L45.7779 18.9205C45.4274 18.6658 44.9528 18.6658 44.6023 18.9205L38.8632 23.0902C38.0795 23.6596 37.025 22.8934 37.3244 21.9721L39.5165 15.2254C39.6504 14.8134 39.5037 14.362 39.1532 14.1074L33.4141 9.93769C32.6304 9.36829 33.0332 8.12868 34.0019 8.12868H41.0958C41.5291 8.12868 41.913 7.84972 42.0469 7.43769L44.239 0.690984Z" fill="#111111"/>
</svg>
