<svg width="21" height="21" viewBox="0 0 21 21" fill="none" xmlns="http://www.w3.org/2000/svg">
<g clip-path="url(#clip0_388_4187)">
<path d="M10.5 21C16.299 21 21 16.299 21 10.5C21 4.70101 16.299 0 10.5 0C4.70101 0 0 4.70101 0 10.5C0 16.299 4.70101 21 10.5 21Z" fill="white"/>
<path d="M15.6807 7.83103C15.6188 7.60038 15.4973 7.39006 15.3284 7.22119C15.1596 7.05233 14.9493 6.93084 14.7186 6.86894C13.8708 6.64136 10.4668 6.64136 10.4668 6.64136C10.4668 6.64136 7.06287 6.64136 6.21408 6.86894C5.9837 6.93138 5.77367 7.05305 5.60488 7.22183C5.43609 7.39062 5.31444 7.60064 5.25199 7.83103C5.02441 8.67982 5.02441 10.4507 5.02441 10.4507C5.02441 10.4507 5.02441 12.2215 5.25199 13.0703C5.31444 13.3007 5.43609 13.5107 5.60488 13.6795C5.77367 13.8483 5.9837 13.9699 6.21408 14.0324C7.06287 14.26 10.4668 14.26 10.4668 14.26C10.4668 14.26 13.8698 14.26 14.7186 14.0324C14.9493 13.9705 15.1596 13.849 15.3284 13.6801C15.4973 13.5113 15.6188 13.3009 15.6807 13.0703C15.9083 12.2215 15.9083 10.4507 15.9083 10.4507C15.9083 10.4507 15.9083 8.67982 15.6807 7.83103ZM9.37776 12.0828V8.81852L12.2103 10.4507L9.37776 12.0828Z" fill="#111111"/>
</g>
<defs>
<clipPath id="clip0_388_4187">
<rect width="21" height="21" fill="white"/>
</clipPath>
</defs>
</svg>
