<svg width="160" height="14" viewBox="0 0 160 14" fill="none" xmlns="http://www.w3.org/2000/svg">
<path d="M44.4961 13H43.002V6.94434H36.252V13H34.7578V0.150391H36.252V5.62598H43.002V0.150391H44.4961V13Z" fill="#DC5B5B"/>
<path d="M51.5186 3.19141C52.3389 3.19141 53.042 3.37305 53.6279 3.73633C54.2139 4.09961 54.6621 4.60938 54.9727 5.26562C55.2832 5.91602 55.4385 6.67773 55.4385 7.55078V8.45605H48.7852C48.8027 9.58691 49.084 10.4482 49.6289 11.04C50.1738 11.6318 50.9414 11.9277 51.9316 11.9277C52.541 11.9277 53.0801 11.8721 53.5488 11.7607C54.0176 11.6494 54.5039 11.4854 55.0078 11.2686V12.5518C54.5215 12.7686 54.0381 12.9268 53.5576 13.0264C53.083 13.126 52.5205 13.1758 51.8701 13.1758C50.9443 13.1758 50.1357 12.9883 49.4443 12.6133C48.7588 12.2324 48.2256 11.6758 47.8447 10.9434C47.4639 10.2109 47.2734 9.31445 47.2734 8.25391C47.2734 7.2168 47.4463 6.32031 47.792 5.56445C48.1436 4.80273 48.6357 4.2168 49.2686 3.80664C49.9072 3.39648 50.6572 3.19141 51.5186 3.19141ZM51.501 4.38672C50.7217 4.38672 50.1006 4.6416 49.6377 5.15137C49.1748 5.66113 48.8994 6.37305 48.8115 7.28711H53.9092C53.9033 6.71289 53.8125 6.20898 53.6367 5.77539C53.4668 5.33594 53.2061 4.99609 52.8545 4.75586C52.5029 4.50977 52.0518 4.38672 51.501 4.38672Z" fill="#DC5B5B"/>
<path d="M64.4824 4.60645H61.3096V13H59.8682V4.60645H56.7393V3.36719H64.4824V4.60645Z" fill="#DC5B5B"/>
<path d="M78.7207 5.78418C78.7207 6.3877 78.5449 6.85938 78.1934 7.19922C77.8418 7.5332 77.3877 7.75879 76.8311 7.87598V7.94629C77.4346 8.02832 77.9531 8.24512 78.3867 8.59668C78.8262 8.94238 79.0459 9.47266 79.0459 10.1875C79.0459 10.7383 78.9141 11.2246 78.6504 11.6465C78.3867 12.0684 77.9736 12.3994 77.4111 12.6396C76.8486 12.8799 76.1162 13 75.2139 13H71.0654V3.36719H75.1787C75.8701 3.36719 76.4795 3.44629 77.0068 3.60449C77.54 3.75684 77.959 4.00879 78.2637 4.36035C78.5684 4.71191 78.7207 5.18652 78.7207 5.78418ZM77.5254 10.1875C77.5254 9.61914 77.3086 9.20898 76.875 8.95703C76.4473 8.70508 75.8232 8.5791 75.0029 8.5791H72.5332V11.8135H75.0381C75.8467 11.8135 76.4619 11.6904 76.8838 11.4443C77.3115 11.1924 77.5254 10.7734 77.5254 10.1875ZM77.2354 5.95117C77.2354 5.49414 77.0684 5.1543 76.7344 4.93164C76.4004 4.70312 75.8525 4.58887 75.0908 4.58887H72.5332V7.35742H74.8359C75.627 7.35742 76.2246 7.24316 76.6289 7.01465C77.0332 6.78613 77.2354 6.43164 77.2354 5.95117Z" fill="#DC5B5B"/>
<path d="M87.5449 3.36719V7.41016H92.915V3.36719H94.374V13H92.915V8.64941H87.5449V13H86.0771V3.36719H87.5449Z" fill="#DC5B5B"/>
<path d="M101.071 3.20898C102.22 3.20898 103.072 3.4668 103.629 3.98242C104.186 4.49805 104.464 5.32129 104.464 6.45215V13H103.4L103.119 11.5762H103.049C102.779 11.9277 102.498 12.2236 102.205 12.4639C101.912 12.6982 101.572 12.877 101.186 13C100.805 13.1172 100.336 13.1758 99.7793 13.1758C99.1934 13.1758 98.6719 13.0732 98.2148 12.8682C97.7637 12.6631 97.4062 12.3525 97.1426 11.9365C96.8848 11.5205 96.7559 10.9932 96.7559 10.3545C96.7559 9.39355 97.1367 8.65527 97.8984 8.13965C98.6602 7.62402 99.8203 7.34277 101.379 7.2959L103.04 7.22559V6.63672C103.04 5.80469 102.861 5.22168 102.504 4.8877C102.146 4.55371 101.643 4.38672 100.992 4.38672C100.488 4.38672 100.008 4.45996 99.5508 4.60645C99.0938 4.75293 98.6602 4.92578 98.25 5.125L97.8018 4.01758C98.2354 3.79492 98.7334 3.60449 99.2959 3.44629C99.8584 3.28809 100.45 3.20898 101.071 3.20898ZM103.022 8.25391L101.555 8.31543C100.354 8.3623 99.5068 8.55859 99.0146 8.9043C98.5225 9.25 98.2764 9.73926 98.2764 10.3721C98.2764 10.9229 98.4434 11.3301 98.7773 11.5938C99.1113 11.8574 99.5537 11.9893 100.104 11.9893C100.96 11.9893 101.66 11.752 102.205 11.2773C102.75 10.8027 103.022 10.0908 103.022 9.1416V8.25391Z" fill="#DC5B5B"/>
<path d="M114.694 13H113.209V4.58887H110.282C110.165 6.10645 110.016 7.40723 109.834 8.49121C109.658 9.56934 109.436 10.4512 109.166 11.1367C108.902 11.8164 108.58 12.3174 108.199 12.6396C107.824 12.9561 107.376 13.1143 106.854 13.1143C106.696 13.1143 106.547 13.1055 106.406 13.0879C106.266 13.0703 106.146 13.041 106.046 13V11.8926C106.122 11.916 106.201 11.9336 106.283 11.9453C106.371 11.957 106.462 11.9629 106.556 11.9629C106.819 11.9629 107.06 11.8545 107.276 11.6377C107.499 11.415 107.698 11.0811 107.874 10.6357C108.056 10.1904 108.217 9.62793 108.357 8.94824C108.498 8.2627 108.621 7.45703 108.727 6.53125C108.838 5.59961 108.935 4.54492 109.017 3.36719H114.694V13Z" fill="#DC5B5B"/>
<path d="M119.159 3.36719V9.42285C119.159 9.54004 119.156 9.69238 119.15 9.87988C119.145 10.0615 119.136 10.2578 119.124 10.4688C119.112 10.6738 119.101 10.873 119.089 11.0664C119.083 11.2539 119.074 11.4092 119.062 11.5322L124.318 3.36719H126.111V13H124.749V7.09375C124.749 6.90625 124.752 6.66602 124.758 6.37305C124.764 6.08008 124.772 5.79297 124.784 5.51172C124.796 5.22461 124.805 5.00195 124.811 4.84375L119.572 13H117.771V3.36719H119.159Z" fill="#DC5B5B"/>
<path d="M130.488 3.36719V6.83008C130.488 7.43359 130.652 7.87891 130.98 8.16602C131.314 8.45312 131.798 8.59668 132.431 8.59668C133.04 8.59668 133.594 8.50293 134.092 8.31543C134.59 8.12793 135.094 7.87305 135.604 7.55078V3.36719H137.062V13H135.604V8.68457C135.064 9.03027 134.534 9.30273 134.013 9.50195C133.491 9.70117 132.867 9.80078 132.141 9.80078C131.15 9.80078 130.383 9.54297 129.838 9.02734C129.299 8.51172 129.029 7.81445 129.029 6.93555V3.36719H130.488Z" fill="#DC5B5B"/>
<path d="M141.536 3.36719V9.42285C141.536 9.54004 141.533 9.69238 141.527 9.87988C141.521 10.0615 141.513 10.2578 141.501 10.4688C141.489 10.6738 141.478 10.873 141.466 11.0664C141.46 11.2539 141.451 11.4092 141.439 11.5322L146.695 3.36719H148.488V13H147.126V7.09375C147.126 6.90625 147.129 6.66602 147.135 6.37305C147.141 6.08008 147.149 5.79297 147.161 5.51172C147.173 5.22461 147.182 5.00195 147.188 4.84375L141.949 13H140.147V3.36719H141.536Z" fill="#DC5B5B"/>
<path d="M152.979 3.36719V9.42285C152.979 9.54004 152.977 9.69238 152.971 9.87988C152.965 10.0615 152.956 10.2578 152.944 10.4688C152.933 10.6738 152.921 10.873 152.909 11.0664C152.903 11.2539 152.895 11.4092 152.883 11.5322L158.139 3.36719H159.932V13H158.569V7.09375C158.569 6.90625 158.572 6.66602 158.578 6.37305C158.584 6.08008 158.593 5.79297 158.604 5.51172C158.616 5.22461 158.625 5.00195 158.631 4.84375L153.393 13H151.591V3.36719H152.979Z" fill="#DC5B5B"/>
<path d="M13 6.5C13 10.0899 10.0899 13 6.5 13C2.91015 13 0 10.0899 0 6.5C0 2.91015 2.91015 0 6.5 0C10.0899 0 13 2.91015 13 6.5Z" fill="#DC5B5B"/>
</svg>
