<svg>
  <symbol id="burger-icon" width="50" height="50" viewBox="0 0 50 50" fill="none" xmlns="http://www.w3.org/2000/svg">
  <path d="M10.4167 14.582H39.5834"  stroke-width="2.58934" stroke-linecap="round" stroke-linejoin="round" />
  <path d="M10.4167 25H39.5834"  stroke-width="2.58934" stroke-linecap="round" stroke-linejoin="round" />
  <path d="M10.4167 35.416H39.5834"  stroke-width="2.58934" stroke-linecap="round" stroke-linejoin="round" />
</symbol>
<symbol id="orders-icon" width="36" height="36" viewBox="0 0 36 36" fill="none" xmlns="http://www.w3.org/2000/svg">
  <path d="M4.5 13.5C4.5 11.8431 5.84314 10.5 7.5 10.5H28.5C30.1569 10.5 31.5 11.8431 31.5 13.5V30C31.5 31.6569 30.1569 33 28.5 33H7.5C5.84314 33 4.5 31.6569 4.5 30V13.5Z" stroke-width="2" stroke-linecap="round" stroke-linejoin="round" />
  <path d="M12 15V9C12 5.68629 14.6863 3 18 3C21.3137 3 24 5.68629 24 9V14.5332" stroke-width="2" stroke-linecap="round" stroke-linejoin="round" />
</symbol>
<symbol width="52" height="77" viewBox="0 0 52 77" fill="none" xmlns="http://www.w3.org/2000/svg">
  <path fill-rule="evenodd" clip-rule="evenodd" d="M1.5 0C0.671573 0 0 0.671573 0 1.5V75.5C0 76.3284 0.671573 77 1.5 77H50.5C51.3284 77 52 76.3284 52 75.5V57.37V1.5C52 0.671573 51.3284 0 50.5 0H26H1.5ZM49 3V55.87H3V3H26H49ZM49 74V58.87H3V74H49ZM19.9664 65.86C19.138 65.86 18.4664 66.5316 18.4664 67.36C18.4664 68.1884 19.138 68.86 19.9664 68.86H30.2052C31.0337 68.86 31.7052 68.1884 31.7052 67.36C31.7052 66.5316 31.0337 65.86 30.2052 65.86H19.9664ZM14.9487 16.9535C15.2426 16.6678 15.65 16.5 16.0833 16.5H21.2451L23.4491 21.8568L20.7234 23.4468C20.0373 23.847 19.7821 24.7127 20.1414 25.4211C21.9446 28.9757 24.8991 31.844 28.539 33.5892C29.2307 33.9209 30.0611 33.6772 30.464 33.0245L32.1205 30.3403L37.7083 32.5134V37.4826C37.7083 37.866 37.5521 38.2425 37.2596 38.5268C36.9743 38.8042 36.5821 38.9704 36.1629 38.9799C30.522 38.6346 25.2111 36.3005 21.2249 32.425C17.2411 28.5518 14.8548 23.4071 14.5005 17.9585C14.5108 17.5887 14.6662 17.2281 14.9487 16.9535ZM16.0833 13.5C14.8812 13.5 13.72 13.9639 12.8575 14.8025C11.9935 15.6425 11.5 16.791 11.5 17.9977C11.5 18.0289 11.501 18.0601 11.5029 18.0913C11.892 24.3157 14.6105 30.1784 19.1337 34.576C23.6558 38.9725 29.669 41.6015 36.0365 41.9777C36.066 41.9795 36.0955 41.9803 36.125 41.9803C37.3272 41.9803 38.4883 41.5164 39.3509 40.6778C40.2149 39.8378 40.7083 38.6894 40.7083 37.4826V31.4873C40.7083 30.8686 40.3286 30.3135 39.752 30.0893L32.0437 27.0916C31.3692 26.8293 30.6036 27.086 30.2235 27.7018L28.6501 30.2514C26.5542 29.0144 24.7951 27.3128 23.515 25.2915L26.0891 23.7899C26.736 23.4126 27.0054 22.616 26.7205 21.9235L23.6372 14.4293C23.4058 13.867 22.858 13.5 22.25 13.5H16.0833Z" fill="#C5358C" />
</symbol>
<symbol id="down-arrow" width="8" height="6" viewBox="0 0 8 6" fill="none" xmlns="http://www.w3.org/2000/svg">
  <path d="M0.23364 1.64018C-0.309132 0.988856 0.154025 0 1.00186 0H6.73178C7.57962 0 8.04277 0.988858 7.5 1.64018L4.63504 5.07814C4.23525 5.55789 3.49839 5.55789 3.0986 5.07813L0.23364 1.64018Z" fill="#111111" />
</symbol>
</svg>