<svg width="21" height="21" viewBox="0 0 21 21" fill="none" xmlns="http://www.w3.org/2000/svg">
<path d="M10.5 21C16.299 21 21 16.299 21 10.5C21 4.70101 16.299 0 10.5 0C4.70101 0 0 4.70101 0 10.5C0 16.299 4.70101 21 10.5 21Z" fill="white"/>
<path d="M10.885 14.3708C6.81393 14.3708 4.49318 11.5793 4.39551 6.93392H6.43397C6.50137 10.3428 8.00458 11.7874 9.19523 12.0853V6.93392H11.1165V9.87392C12.2886 9.74792 13.5281 8.4088 13.9442 6.93392H15.8654C15.545 8.74969 14.2049 10.0898 13.2526 10.6407C13.9975 11.0105 14.6553 11.5343 15.1827 12.1773C15.71 12.8204 16.0949 13.568 16.3118 14.3708H14.1981C13.7439 12.9565 12.6119 11.8626 11.1165 11.7141V14.3708H10.885Z" fill="#111111"/>
</svg>
