<svg width="19" height="19" viewBox="0 0 19 19" fill="none" xmlns="http://www.w3.org/2000/svg">
<path d="M19 9.5C19 14.7467 14.7467 19 9.5 19C4.25329 19 0 14.7467 0 9.5C0 4.25329 4.25329 0 9.5 0C14.7467 0 19 4.25329 19 9.5Z" fill="white"/>
<path d="M11.2773 15H9.16504V9.2168C9.16504 9.05729 9.16732 8.86133 9.17188 8.62891C9.17643 8.39193 9.18327 8.15039 9.19238 7.9043C9.2015 7.65365 9.21061 7.42806 9.21973 7.22754C9.1696 7.28678 9.06706 7.38932 8.91211 7.53516C8.76172 7.67643 8.62044 7.80404 8.48828 7.91797L7.33984 8.84082L6.32129 7.56934L9.54102 5.00586H11.2773V15Z" fill="black"/>
</svg>
