<svg width="125" height="14" viewBox="0 0 125 14" fill="none" xmlns="http://www.w3.org/2000/svg">
<path d="M34.7578 0.150391H38.3965C40.002 0.150391 41.209 0.390625 42.0176 0.871094C42.8262 1.35156 43.2305 2.16895 43.2305 3.32324C43.2305 3.82129 43.1338 4.26953 42.9404 4.66797C42.7529 5.06055 42.4775 5.38574 42.1143 5.64355C41.751 5.90137 41.3027 6.08008 40.7695 6.17969V6.26758C41.332 6.35547 41.8301 6.5166 42.2637 6.75098C42.6973 6.98535 43.0371 7.31348 43.2832 7.73535C43.5293 8.15723 43.6523 8.69336 43.6523 9.34375C43.6523 10.1348 43.4678 10.8027 43.0986 11.3477C42.7354 11.8926 42.2197 12.3057 41.5518 12.5869C40.8838 12.8623 40.0928 13 39.1787 13H34.7578V0.150391ZM36.252 5.66113H38.7129C39.832 5.66113 40.6055 5.47656 41.0332 5.10742C41.4668 4.73828 41.6836 4.19922 41.6836 3.49023C41.6836 2.75781 41.4258 2.23047 40.9102 1.9082C40.4004 1.58594 39.5859 1.4248 38.4668 1.4248H36.252V5.66113ZM36.252 6.91797V11.7256H38.9238C40.0664 11.7256 40.875 11.5029 41.3496 11.0576C41.8242 10.6064 42.0615 10 42.0615 9.23828C42.0615 8.75195 41.9531 8.33594 41.7363 7.99023C41.5254 7.64453 41.1797 7.38086 40.6992 7.19922C40.2246 7.01172 39.5889 6.91797 38.792 6.91797H36.252Z" fill="#68AE5C"/>
<path d="M52.3184 3.36719V7.41016H57.6885V3.36719H59.1475V13H57.6885V8.64941H52.3184V13H50.8506V3.36719H52.3184Z" fill="#68AE5C"/>
<path d="M65.8447 3.20898C66.9932 3.20898 67.8457 3.4668 68.4023 3.98242C68.959 4.49805 69.2373 5.32129 69.2373 6.45215V13H68.1738L67.8926 11.5762H67.8223C67.5527 11.9277 67.2715 12.2236 66.9785 12.4639C66.6855 12.6982 66.3457 12.877 65.959 13C65.5781 13.1172 65.1094 13.1758 64.5527 13.1758C63.9668 13.1758 63.4453 13.0732 62.9883 12.8682C62.5371 12.6631 62.1797 12.3525 61.916 11.9365C61.6582 11.5205 61.5293 10.9932 61.5293 10.3545C61.5293 9.39355 61.9102 8.65527 62.6719 8.13965C63.4336 7.62402 64.5938 7.34277 66.1523 7.2959L67.8135 7.22559V6.63672C67.8135 5.80469 67.6348 5.22168 67.2773 4.8877C66.9199 4.55371 66.416 4.38672 65.7656 4.38672C65.2617 4.38672 64.7812 4.45996 64.3242 4.60645C63.8672 4.75293 63.4336 4.92578 63.0234 5.125L62.5752 4.01758C63.0088 3.79492 63.5068 3.60449 64.0693 3.44629C64.6318 3.28809 65.2236 3.20898 65.8447 3.20898ZM67.7959 8.25391L66.3281 8.31543C65.127 8.3623 64.2803 8.55859 63.7881 8.9043C63.2959 9.25 63.0498 9.73926 63.0498 10.3721C63.0498 10.9229 63.2168 11.3301 63.5508 11.5938C63.8848 11.8574 64.3271 11.9893 64.8779 11.9893C65.7334 11.9893 66.4336 11.752 66.9785 11.2773C67.5234 10.8027 67.7959 10.0908 67.7959 9.1416V8.25391Z" fill="#68AE5C"/>
<path d="M79.4678 13H77.9824V4.58887H75.0557C74.9385 6.10645 74.7891 7.40723 74.6074 8.49121C74.4316 9.56934 74.209 10.4512 73.9395 11.1367C73.6758 11.8164 73.3535 12.3174 72.9727 12.6396C72.5977 12.9561 72.1494 13.1143 71.6279 13.1143C71.4697 13.1143 71.3203 13.1055 71.1797 13.0879C71.0391 13.0703 70.9189 13.041 70.8193 13V11.8926C70.8955 11.916 70.9746 11.9336 71.0566 11.9453C71.1445 11.957 71.2354 11.9629 71.3291 11.9629C71.5928 11.9629 71.833 11.8545 72.0498 11.6377C72.2725 11.415 72.4717 11.0811 72.6475 10.6357C72.8291 10.1904 72.9902 9.62793 73.1309 8.94824C73.2715 8.2627 73.3945 7.45703 73.5 6.53125C73.6113 5.59961 73.708 4.54492 73.79 3.36719H79.4678V13Z" fill="#68AE5C"/>
<path d="M83.9326 3.36719V9.42285C83.9326 9.54004 83.9297 9.69238 83.9238 9.87988C83.918 10.0615 83.9092 10.2578 83.8975 10.4688C83.8857 10.6738 83.874 10.873 83.8623 11.0664C83.8564 11.2539 83.8477 11.4092 83.8359 11.5322L89.0918 3.36719H90.8848V13H89.5225V7.09375C89.5225 6.90625 89.5254 6.66602 89.5312 6.37305C89.5371 6.08008 89.5459 5.79297 89.5576 5.51172C89.5693 5.22461 89.5781 5.00195 89.584 4.84375L84.3457 13H82.5439V3.36719H83.9326Z" fill="#68AE5C"/>
<path d="M95.2617 3.36719V6.83008C95.2617 7.43359 95.4258 7.87891 95.7539 8.16602C96.0879 8.45312 96.5713 8.59668 97.2041 8.59668C97.8135 8.59668 98.3672 8.50293 98.8652 8.31543C99.3633 8.12793 99.8672 7.87305 100.377 7.55078V3.36719H101.836V13H100.377V8.68457C99.8379 9.03027 99.3076 9.30273 98.7861 9.50195C98.2646 9.70117 97.6406 9.80078 96.9141 9.80078C95.9238 9.80078 95.1562 9.54297 94.6113 9.02734C94.0723 8.51172 93.8027 7.81445 93.8027 6.93555V3.36719H95.2617Z" fill="#68AE5C"/>
<path d="M106.31 3.36719V9.42285C106.31 9.54004 106.307 9.69238 106.301 9.87988C106.295 10.0615 106.286 10.2578 106.274 10.4688C106.263 10.6738 106.251 10.873 106.239 11.0664C106.233 11.2539 106.225 11.4092 106.213 11.5322L111.469 3.36719H113.262V13H111.899V7.09375C111.899 6.90625 111.902 6.66602 111.908 6.37305C111.914 6.08008 111.923 5.79297 111.935 5.51172C111.946 5.22461 111.955 5.00195 111.961 4.84375L106.723 13H104.921V3.36719H106.31Z" fill="#68AE5C"/>
<path d="M117.753 3.36719V9.42285C117.753 9.54004 117.75 9.69238 117.744 9.87988C117.738 10.0615 117.729 10.2578 117.718 10.4688C117.706 10.6738 117.694 10.873 117.683 11.0664C117.677 11.2539 117.668 11.4092 117.656 11.5322L122.912 3.36719H124.705V13H123.343V7.09375C123.343 6.90625 123.346 6.66602 123.352 6.37305C123.357 6.08008 123.366 5.79297 123.378 5.51172C123.39 5.22461 123.398 5.00195 123.404 4.84375L118.166 13H116.364V3.36719H117.753Z" fill="#68AE5C"/>
<path d="M13 6.5C13 10.0899 10.0899 13 6.5 13C2.91015 13 0 10.0899 0 6.5C0 2.91015 2.91015 0 6.5 0C10.0899 0 13 2.91015 13 6.5Z" fill="#68AE5C"/>
</svg>
